<?xml version="1.0" standalone="no"?>
<!DOCTYPE svg PUBLIC "-//W3C//DTD SVG 20010904//EN"
 "http://www.w3.org/TR/2001/REC-SVG-20010904/DTD/svg10.dtd">
<svg version="1.0" xmlns="http://www.w3.org/2000/svg"
 width="512.000000pt" height="512.000000pt" viewBox="0 0 512.000000 512.000000"
 preserveAspectRatio="xMidYMid meet">

<g transform="translate(0.000000,512.000000) scale(0.100000,-0.100000)"
fill="#000000" stroke="none">
<path d="M2175 4731 c-16 -5 -46 -9 -65 -10 -19 0 -68 -11 -108 -23 -59 -17
-72 -24 -66 -37 4 -9 9 -27 12 -41 7 -32 57 -101 211 -286 69 -82 207 -249
306 -369 99 -120 209 -250 243 -289 35 -39 88 -103 118 -142 29 -39 134 -167
232 -285 98 -118 247 -297 331 -399 84 -102 226 -273 316 -380 304 -365 420
-505 485 -585 156 -194 254 -300 283 -308 55 -15 66 -2 167 218 74 160 136
402 159 617 14 125 14 379 1 488 -47 375 -194 727 -440 1050 -183 240 -449
456 -739 600 -142 71 -341 140 -402 140 -24 0 -55 1 -69 3 -14 1 -34 -3 -45
-9 -19 -12 -73 -20 -180 -28 -27 -2 -54 -5 -60 -7 -5 -1 -44 1 -85 6 -41 5
-84 9 -96 10 -11 1 -25 5 -32 9 -7 4 -16 5 -20 2 -5 -3 -33 3 -63 13 -83 29
-109 34 -184 37 -38 1 -95 4 -125 7 -30 3 -68 2 -85 -2z"/>
</g>
</svg>
